<svg width="50" height="50" viewBox="0 0 50 50" fill="none" xmlns="http://www.w3.org/2000/svg">
	<path d="M31.3654 23.8288C31.3286 23.8288 31.3286 23.8869 31.3286 23.9159C31.3286 23.945 31.3286 24.0031 31.4021 24.0613C31.5492 24.1775 31.6596 24.2357 31.6963 24.2357C31.7331 24.2357 31.7699 24.2066 31.7699 24.1775C31.7699 24.1194 31.7331 24.0613 31.6963 24.0031C31.586 23.9159 31.4757 23.8288 31.4021 23.8288H31.3654ZM29.4531 24.4973C29.5635 24.6426 29.637 24.7007 29.7106 24.7007C29.8209 24.7007 29.8944 24.5554 30.0415 24.2357C30.1151 24.1194 30.1518 23.9741 30.1886 23.8578C30.2254 23.7706 30.2622 23.7125 30.2622 23.6544C30.2622 23.5962 30.1886 23.5962 30.0415 23.5962C29.4899 23.6253 29.1222 23.7416 29.1222 23.9741C29.1222 24.1194 29.2325 24.2647 29.4531 24.4973ZM20.6275 34.9607C20.554 34.7573 20.4437 34.5538 20.4069 34.5538C20.3701 34.5538 20.3333 34.6119 20.3333 34.8445C20.3333 34.9317 20.3333 35.1642 20.4069 35.2514C20.4069 35.2804 20.4437 35.2804 20.5172 35.2804C20.5907 35.2804 20.6643 35.2514 20.6643 35.1351C20.6643 35.077 20.6643 35.0189 20.6275 34.9607ZM25.9597 22.5789C25.8126 22.5499 25.5919 22.5499 25.4448 22.5499C25.261 22.5499 25.0771 22.5499 25.0771 22.5789C25.0771 22.608 25.2242 22.608 25.5552 22.6371H25.8493C25.9597 22.6371 26.0332 22.6371 26.0332 22.608C26.0332 22.608 25.9964 22.608 25.9597 22.5789ZM18.0534 22.0558C17.9063 21.8233 17.9063 21.6779 17.8695 21.6779L17.7592 21.8523C17.6856 21.9686 17.5753 22.0558 17.5753 22.143C17.5753 22.2011 17.6489 22.2592 17.7592 22.2883C17.9063 22.3464 18.0166 22.3755 18.0534 22.3755C18.1269 22.3755 18.1637 22.3464 18.1637 22.2883C18.1637 22.2302 18.1269 22.172 18.0534 22.0558ZM35.1898 23.6834C37.433 23.6544 38.8304 23.6544 40.191 23.6253H41C41 23.6253 40.9265 23.6544 40.8161 23.6544C40.3749 23.6834 39.8233 23.7706 39.5658 23.8578C39.3084 23.945 38.4259 24.1485 37.6168 24.2938C36.7711 24.4391 35.962 24.7007 35.7782 24.817C35.6311 24.9623 35.153 25.1076 34.7485 25.1367C33.7556 25.2239 31.6963 26.2121 31.6595 26.619V26.6481C31.6595 26.8225 31.8802 27.055 32.1008 27.2294C32.2847 27.3456 32.395 27.4038 32.395 27.4328C32.395 27.4619 32.3215 27.4619 32.2112 27.4619H31.7699C31.1079 27.4619 30.9241 27.52 30.7402 27.9851C30.5931 28.2757 30.3357 28.6245 30.1518 28.7408C30.0783 28.7989 30.0415 28.828 30.0047 28.828V28.7989C30.0047 28.7698 30.0047 28.7117 30.0783 28.5954C30.1151 28.5373 30.1151 28.5082 30.1151 28.4792V28.4501C30.0415 28.4501 29.8577 28.5664 29.6002 28.7698C29.4899 28.8861 29.3796 29.0024 29.2325 29.1186C29.0486 29.3221 28.9383 29.4965 28.9383 29.5837C28.9383 29.6127 28.9383 29.6418 28.9751 29.6418C29.0486 29.6418 29.159 29.5546 29.3796 29.3802C29.637 29.1477 29.7841 29.0314 29.8209 29.0314V29.0605C29.8209 29.1186 29.6738 29.3511 29.4899 29.6127C29.0486 30.2522 28.9015 30.8335 28.5338 31.4438C28.2764 31.8507 28.0925 32.1414 28.0925 32.3158C28.0925 32.5483 28.3499 32.6936 29.1222 32.868C29.7473 32.9843 30.5196 33.4784 30.5563 34.0597C30.5563 34.1178 30.5196 34.1469 30.4828 34.1469C30.3357 34.1469 30.1151 33.9144 30.0415 33.8562C29.8209 33.6528 29.6002 33.4493 29.2325 33.4203H29.159C28.6074 33.4203 27.3938 34.0306 26.9526 34.2632C25.9229 34.8445 25.6655 34.9607 25.5919 36.0071C25.5919 36.443 25.5184 36.85 25.4081 37.2859C25.2977 37.9544 25.1507 38.4195 24.7461 39.0299C24.452 39.4658 23.8268 40.1634 23.2017 40.3087C23.1281 40.3378 23.0913 40.3378 23.0546 40.3378C22.981 40.3378 22.9075 40.3087 22.9075 40.2506L22.9442 40.1925C23.1281 39.989 23.6429 39.989 24.0474 39.3205C24.3416 38.8264 24.452 37.8963 24.452 37.0825C24.452 36.6174 24.4152 36.1815 24.3784 35.8908C24.3049 35.6292 24.121 35.542 23.8636 35.542C23.312 35.542 22.503 36.0071 22.2088 36.2396L22.1352 36.2977C21.8778 36.5593 21.694 36.7628 21.5101 37.0825C21.0688 37.8091 20.8114 38.7683 20.8114 39.6402C20.8114 39.8727 20.8114 40.0762 20.8482 40.2797C21.0688 41.2388 21.2894 42.3433 21.694 43.2734C21.7307 43.3606 21.9146 43.7965 21.9146 43.9419V44C21.8778 44 21.8043 43.9419 21.694 43.8547C20.9585 43.1571 20.7011 42.4595 20.4437 41.5876C20.1495 40.5703 19.9656 40.1925 19.9656 39.2914V38.8555L20.0024 38.6811V38.5939C20.0024 38.0416 19.745 37.6347 19.745 37.1406C19.745 37.0534 19.7817 36.9953 19.7817 36.9081C19.8185 36.6756 20.0391 36.2687 20.0391 35.9489C20.0391 35.8617 20.0391 35.7745 19.9656 35.6874C19.9288 35.6292 19.8553 35.6002 19.745 35.6002C19.3037 35.6002 18.4947 36.1815 18.4947 36.9081C18.4947 37.0534 18.5314 37.1987 18.605 37.3441C18.6418 37.4313 18.7889 37.6347 18.7889 37.6929C18.7521 37.6929 18.7521 37.6929 18.7153 37.6638C17.9798 37.1406 18.0534 36.6756 17.8327 36.0361C17.6489 35.5711 17.3915 35.542 17.2444 35.2804C17.2444 35.2223 17.9063 34.8154 18.0534 34.4375C18.0902 34.3504 18.0902 34.2922 18.0902 34.2341C18.0902 33.7981 17.5753 33.6528 17.0973 33.5365C16.8031 33.4784 16.656 33.4493 16.656 33.4203H17.0237C17.3915 33.4203 17.5386 33.3621 17.5386 33.1587C17.5386 33.1005 17.5018 33.0424 17.5018 32.9843V32.8099C17.5018 32.6355 17.5386 32.5483 17.5753 32.5483H17.6121C17.7224 32.5192 17.7592 32.403 17.7592 32.2577C17.7592 31.9379 17.5753 31.4729 17.4282 31.3276C17.0973 30.8335 17.1708 30.3975 16.8399 29.9324C16.5824 29.5546 16.3618 29.4383 16.0676 29.4383C15.7367 29.4383 15.4057 29.6709 15.038 29.9615C14.5231 30.3975 14.3025 30.5719 14.2657 30.5719C14.2289 30.5719 14.2289 30.5719 14.2289 30.5428C14.2289 30.4847 14.5231 30.165 14.8541 29.729L15.0012 29.5837C15.1115 29.4093 15.2586 29.2639 15.3689 29.1186C15.4425 29.0605 15.516 28.9733 15.5528 28.8861C15.6631 28.7117 15.7367 28.5664 15.7367 28.4501C15.7367 28.1595 15.4425 27.8979 15.1115 27.6072C14.5231 27.0841 14.4128 26.5318 14.4128 25.9796C14.4128 25.7471 14.4496 25.4855 14.4496 25.2529C14.4496 25.1076 14.4128 24.9332 14.4128 24.7879C14.376 24.5844 14.3393 24.4391 14.3393 24.4101C14.3393 24.4101 14.4128 24.4682 14.5231 24.6426C15.0012 25.4564 14.6335 26.5609 15.2218 27.1131C15.4057 27.2875 15.4792 27.3456 15.7367 27.4619C16.5089 27.8107 16.8766 28.1595 17.2811 28.7989C17.6121 29.293 17.8695 29.7871 18.7153 29.7871C19.0463 29.7871 19.1566 29.7581 19.3037 29.7581C19.414 29.7581 19.5611 29.7871 19.8921 29.9034C20.3333 30.0487 20.4437 29.9906 20.8482 30.0487C21.1423 30.1068 21.2527 30.1359 21.2527 30.165C21.2527 30.2522 20.7011 30.3103 20.4804 30.3394C20.3333 30.3684 20.223 30.3684 20.1127 30.3684C19.9288 30.3684 19.8185 30.3684 19.5611 30.5137C19.2669 30.6591 18.8992 30.5719 18.8992 30.6591C18.9727 30.8044 19.5611 30.9497 19.9288 31.6473C20.2966 32.4611 20.7378 32.6646 21.5469 32.6646C21.7307 32.6646 21.9514 32.6646 22.2088 32.6355C22.6868 32.5774 22.8707 32.5483 22.8707 32.4902C22.8707 32.432 22.4662 32.3449 22.0985 32.2286C21.9514 32.1995 21.841 32.1414 21.694 32.0833C21.1056 31.8217 20.8849 31.7345 20.8849 31.7054C20.9953 31.7054 21.4733 31.8217 21.9514 31.8798C22.1352 31.9089 22.3559 31.9089 22.5397 31.9089C23.1281 31.9089 23.7533 31.8217 24.2313 31.7054C24.3784 31.6764 24.5623 31.5892 24.6726 31.5892C24.7461 31.5892 24.7829 31.6182 24.7829 31.7345C24.7829 32.3449 22.5765 33.5947 22.0617 34.205C22.0249 34.2632 21.9881 34.2922 21.9881 34.3213C21.9881 34.3504 22.0249 34.3504 22.0249 34.3504C22.0985 34.3504 22.3191 34.205 22.4294 34.176C23.2017 33.8272 24.0475 33.3621 24.7461 32.9262C25.5184 32.3739 25.8493 32.0251 25.8493 31.2985C25.8493 31.1822 25.8126 31.066 25.8126 30.9207V30.4847C25.8126 30.1359 25.8493 29.7581 25.9964 29.4674C26.1435 29.2349 26.2906 29.0605 26.2906 28.9152C26.2906 28.7989 26.1803 28.6826 25.8493 28.5954C25.1507 28.392 24.6726 27.9851 24.0107 27.8979C23.4223 27.7816 23.1649 27.6944 22.6868 27.4038C22.6133 27.3456 22.5765 27.3166 22.503 27.2875L22.4662 27.2584C22.3926 27.2003 22.3926 27.1712 22.3926 27.1712C22.3926 27.1422 22.3926 27.1422 22.4294 27.1422C22.6133 27.1422 23.1281 27.3166 23.1649 27.3166C23.4591 27.4038 23.6429 27.4328 23.8636 27.4328H24.0842C25.1874 27.4038 25.2977 27.3456 26.1803 26.8225C26.879 26.4446 27.6512 26.2412 28.3132 25.8633C28.5706 25.6889 28.6441 25.4564 28.6441 25.2239C28.6441 24.9623 28.5706 24.7007 28.497 24.4391C28.4603 24.2357 28.4235 24.0903 28.4235 23.9741C28.4235 23.6834 28.5706 23.6253 28.9383 23.5962C29.0119 23.5962 29.3796 23.5381 29.3796 23.48C29.3796 23.4509 29.3428 23.4509 29.2693 23.4509C29.0119 23.4509 28.4235 23.5381 28.3499 23.5381C27.4306 23.7125 26.7687 23.7125 25.8126 23.7125C25.739 23.7125 25.6655 23.7125 25.5919 23.7416C25.4448 23.7997 25.4081 23.8869 25.4081 23.9741C25.4081 24.0903 25.5184 24.2066 25.6287 24.3229C25.7758 24.4682 25.8493 24.5554 25.8493 24.5844C25.8493 24.6135 25.8493 24.6135 25.8126 24.6135C25.739 24.6135 25.5552 24.5554 25.2977 24.4973C24.93 24.4101 24.4887 24.3519 24.1578 24.2357C23.9004 24.1485 23.6797 24.0031 23.4223 24.0031C23.2017 24.0322 23.2017 24.1485 23.1281 24.2647C23.0913 24.3519 23.0178 24.381 22.9075 24.381C22.6868 24.381 22.3559 24.2066 22.2088 24.2066C22.172 24.2066 22.1352 24.2066 22.0985 24.2357V24.2647C22.0985 24.381 22.2088 24.4682 22.3191 24.5554C22.3559 24.5844 22.3926 24.6426 22.4294 24.6716C22.6133 24.846 22.6501 24.9623 22.6501 25.1076C22.6501 25.1948 22.6133 25.3111 22.6133 25.4855C22.6133 25.5727 22.6501 25.8924 22.6501 26.0377V26.0958C22.5397 25.9505 22.6501 25.8052 22.4662 25.6599C22.2088 25.3983 22.2456 25.0204 21.8778 24.9332C21.8043 24.9042 21.694 24.9042 21.6204 24.9042C21.2159 24.9042 20.8114 25.0786 20.3333 25.0786C20.2598 25.0786 20.1495 25.0786 20.0759 25.0495C19.7817 24.9332 19.9288 24.7588 19.7817 24.7007C19.7082 24.6716 19.5979 24.6716 19.4508 24.6716C19.1934 24.6716 18.8992 24.7007 18.7521 24.7588C18.2005 24.9623 17.9063 25.2529 17.6856 25.6889C17.6121 25.8633 17.5018 26.3284 17.3915 26.4156C17.3547 26.3865 17.3547 26.2993 17.3547 26.2121C17.3547 25.9796 17.3915 25.6308 17.4282 25.5145C17.5018 25.3692 17.5753 25.1658 17.6489 25.0204C17.796 24.6426 18.3476 24.4682 18.4947 24.2066V24.1485C18.4947 24.0031 18.274 23.9741 18.1269 23.9741H18.0166C17.9063 23.9741 17.9063 24.0031 17.9063 24.0031C17.9063 24.0322 18.0534 24.0903 18.0534 24.1194C18.0534 24.1194 18.0534 24.1485 17.9431 24.1485C17.796 24.1775 17.6856 24.1775 17.6121 24.1775C17.0973 24.1775 17.3547 23.9159 17.1708 23.7706C17.0605 23.6834 16.9134 23.6544 16.7295 23.5381C16.4354 23.3056 16.4354 23.3346 16.0676 23.1603C15.4792 22.8405 15.0747 22.7824 13.1993 22.7243C12.2064 22.6952 11.5445 22.6661 11.5445 22.6371C11.5445 22.608 11.5445 22.608 11.618 22.608C11.949 22.608 12.7212 22.4336 13.2728 22.2592C13.8612 22.0848 14.2657 21.9976 14.707 21.9976C14.8541 21.9976 15.038 21.9976 15.2218 22.0267C15.4792 22.0558 15.6999 22.0848 15.8102 22.0848C16.0676 22.0848 16.1044 21.9976 16.1412 21.8233V21.7942C16.1412 21.3291 15.3689 20.806 14.5967 20.7769C14.2657 20.7478 14.1186 20.7478 14.1186 20.7188C14.1186 20.6897 14.2289 20.6606 14.4864 20.5734C14.8541 20.4281 15.0012 20.2828 15.0012 20.1375C15.0012 19.934 14.707 19.7306 14.4864 19.469C14.1554 19.1493 13.7877 18.5389 13.3832 18.3936C13.089 18.3064 12.8316 18.2482 12.5741 18.2482C12.3167 18.2482 12.0593 18.3064 11.7284 18.3936C11.3606 18.4808 11.14 18.5389 11.0297 18.5389C10.9561 18.5389 10.9193 18.5098 10.9193 18.5098C10.9193 18.4517 11.14 18.3354 11.5813 18.132C11.949 17.9576 12.1329 17.696 12.1329 17.4344C12.1329 17.1728 11.949 16.9112 11.5813 16.7078C11.3974 16.6206 11.3238 16.5625 11.3238 16.4462C11.3238 16.359 11.3974 16.2427 11.5445 16.0974C11.6548 15.9521 11.7284 15.8649 11.7284 15.7486C11.7284 15.5452 11.5445 15.3417 11.14 14.9348C10.6251 14.4116 10 12.9584 10 12.4352C10 12.348 10.0368 12.2899 10.0735 12.2608C10.1471 12.2608 10.5148 12.7258 10.9193 13.249C11.8019 14.3826 13.1993 15.5742 13.6773 15.6033C13.8612 15.6324 14.0451 15.7486 14.1922 15.894C14.4864 16.1265 15.0747 16.2137 15.4792 16.3009C15.5528 16.3299 15.6263 16.3299 15.6631 16.3299C15.7734 16.3299 15.8102 16.3009 15.8102 16.2427C15.8102 16.1846 15.6999 16.0683 15.5528 16.0393C14.5967 15.894 13.7509 15.3708 13.2361 14.7023C13.0154 14.4407 12.8316 14.1791 12.8316 14.1791C12.8683 14.1791 13.6038 14.557 14.4864 14.9929C15.1851 15.3708 16.325 15.894 17.134 16.0974C17.6856 16.2427 18.1637 16.4171 18.1637 16.5043C18.2005 16.6206 18.274 16.6787 18.3843 16.6787C18.5314 16.6787 18.7153 16.5625 18.7889 16.4171C18.8256 16.2718 18.8256 16.2137 18.8624 16.2137C18.9359 16.2137 19.0095 16.2718 19.1198 16.359C19.414 16.5625 20.0759 16.824 20.5172 16.8531C20.5907 16.8531 20.6643 16.8822 20.7011 16.8822C20.9217 16.8822 20.9953 16.795 21.2159 16.6496C21.3262 16.5625 21.5836 16.5334 21.7307 16.5334C21.8043 16.5334 21.841 16.5334 21.841 16.5625C21.841 16.5625 21.8043 16.5915 21.6572 16.6496C21.3998 16.7368 21.2894 16.795 21.2894 16.8531C21.2894 16.9403 21.4365 16.9694 21.6572 16.9694H21.7675C22.2088 16.9403 22.3559 16.8822 22.6501 16.8822C22.7604 16.8822 22.9075 16.8822 23.1281 16.9112C23.2384 16.9112 23.312 16.9403 23.3855 16.9403C23.4958 16.9403 23.5326 16.9112 23.5326 16.9112C23.5326 16.824 22.9442 16.6496 22.7604 16.6206L22.6133 16.5625H22.7236C22.9442 16.5625 23.312 16.5915 23.4223 16.5915C23.79 16.6206 24.121 16.6496 24.4887 16.6496H24.7461C25.8493 16.6496 25.7758 16.4753 26.7319 16.0393C27.688 15.6033 27.4674 16.0683 28.2764 15.2255C28.3867 15.0801 28.3867 15.022 28.4603 14.9057C28.7177 14.7023 30.2622 14.2082 30.2622 13.5978C30.2622 13.4815 30.1886 13.3362 30.0047 13.1909C29.7106 12.9874 29.637 12.9584 29.3796 12.6677C28.6809 11.7667 28.2764 10.8947 28.2764 9.81932C28.3132 9.0927 28.497 7.93009 28.8648 7.29065C28.9751 7.0872 29.0486 7 29.0854 7C29.1222 7 29.1222 7.05813 29.1222 7.14533C29.1222 7.29065 29.0854 7.52317 29.0854 7.61037C29.0119 8.337 28.9383 8.9183 28.9383 9.44148C28.9383 10.4297 29.1957 11.2435 30.2622 12.348C30.5563 12.6386 31.6963 13.5687 32.1744 13.5687H32.2479C32.395 13.5687 32.6157 13.7431 32.7628 13.9466C32.9098 14.2082 33.1673 14.4116 33.3511 14.4116C33.4614 14.4407 33.535 14.6441 33.535 14.9057V15.0801C33.4982 15.1964 33.4982 15.2836 33.4982 15.3708C33.4982 15.6905 33.6821 15.894 34.1234 16.1555C34.3072 16.2718 34.4176 16.3299 34.4176 16.359C34.344 16.359 34.0498 16.2427 33.4614 15.9811C32.6892 15.6324 32.1376 15.458 31.7331 15.458C31.3286 15.458 31.1079 15.6324 30.9609 15.9811C30.6299 16.824 30.446 17.231 30.446 17.4635C30.446 17.6669 30.5931 17.7251 30.8505 17.7832C31.0344 17.8413 31.1447 17.8704 31.1447 17.8995C31.1447 17.9285 30.9976 17.9576 30.6667 18.0157H30.5931C30.1886 18.1029 29.9312 18.2773 29.9312 18.4517C29.9312 18.597 30.1151 18.7423 30.446 18.8295C31.1447 18.9749 31.5492 19.1493 31.5492 19.2946C31.5492 19.3236 31.5492 19.3527 31.5125 19.3818C31.4389 19.4108 31.3654 19.4399 31.3286 19.4399C31.255 19.4399 31.1815 19.4108 31.1079 19.3527C30.8138 19.1493 30.4093 19.1202 30.0415 19.1202H29.7106C29.3061 19.1202 29.0486 19.1783 28.6074 19.3818C28.2396 19.5562 28.0558 19.5562 27.7248 19.6724C27.2467 19.8468 26.7319 20.7188 26.5848 21.1257C26.548 21.3291 26.5113 21.4454 26.4377 21.4454L26.3642 21.3873C26.2906 21.271 26.1803 21.1838 26.0332 21.0676C25.6655 20.835 25.1874 20.6316 25.1874 20.3409C25.1874 20.2537 25.261 20.1375 25.3713 20.0212C25.5184 19.8468 25.5919 19.6724 25.5919 19.5271C25.5919 19.3527 25.5184 19.1783 25.4816 18.9749V18.8005C25.4816 17.8123 26.401 18.0448 27.3938 17.8995C27.6145 17.8704 27.9087 17.7832 27.9087 17.6669C27.9087 17.6379 27.8351 17.5797 27.688 17.5507C27.5042 17.4925 27.2467 17.4635 27.0261 17.4635C26.5113 17.4635 25.9964 17.5797 25.5552 17.696C25.0036 17.8413 24.8932 18.132 24.3784 18.132C24.3049 18.132 24.2313 18.1029 24.1578 18.1029C23.79 18.0448 23.4591 17.9866 23.1649 17.9866C22.9442 17.9866 22.7236 18.0157 22.503 18.1029C22.1352 18.2192 21.7675 18.4226 21.3998 18.568C20.9585 18.7423 21.1423 18.8877 20.5907 18.8877H19.8921C19.4875 18.8877 19.3405 18.9167 18.6418 19.2074C18.3108 19.3236 18.0166 19.498 17.7224 19.6143C17.6489 19.6434 17.5386 19.6724 17.465 19.6724C17.1708 19.6724 16.9134 19.4108 16.7295 19.2074C16.6192 19.033 16.4721 18.8586 16.325 18.6842C16.1779 18.4517 16.1412 18.3064 16.0308 18.132C15.9941 18.1029 15.9941 18.0738 15.9573 18.0738C15.9205 18.0738 15.8837 18.161 15.8837 18.2773C15.8837 18.6261 16.1779 19.4108 17.2076 19.905C17.7592 20.1665 18.1269 20.2537 18.4947 20.2537C18.8624 20.2537 19.2301 20.1665 19.8185 20.1084H20.0024C20.0759 20.1084 20.1127 20.1084 20.1495 20.1665V20.1956C20.1495 20.37 19.745 20.5153 19.745 20.7188C19.745 20.806 19.8921 20.9513 20.2966 21.0966C21.4733 21.5035 22.0985 21.9104 23.5326 21.9976C23.7165 21.9976 23.8268 22.0267 23.8268 22.0558C23.8268 22.0848 23.6429 22.1139 23.4591 22.143C23.312 22.172 23.1649 22.172 23.0178 22.172C22.0617 22.172 21.032 21.8233 20.1495 21.6779C20.0391 21.6489 19.7817 21.5907 19.5979 21.5907C19.4875 21.5907 19.414 21.5907 19.3772 21.6489L19.4875 21.7361C19.745 21.9104 20.0391 22.0267 20.3701 22.0848C21.1791 22.3174 21.8778 22.4627 22.6501 22.4627C22.981 22.4627 23.3488 22.4336 23.7165 22.3755C23.9004 22.3464 23.9739 22.3464 24.0107 22.3464L23.9371 22.4046C23.9371 22.4336 23.9371 22.4336 24.0107 22.4336H25.7758C26.2171 22.4336 27.1364 22.4336 27.5409 22.3464C27.7616 22.2883 27.9454 22.2011 28.1293 22.0848C28.5338 21.8233 28.6074 21.5907 28.7544 21.2129C28.7544 21.1548 28.9015 20.7769 28.9751 20.7769C29.0119 20.7769 29.0119 20.806 29.0119 20.806C29.0486 20.8641 29.0119 21.1548 29.159 21.3873C29.3428 21.6489 29.4899 21.707 29.8577 21.7651C30.2622 21.7942 30.6667 21.8523 31.0712 21.9104C31.1815 21.9395 31.2918 21.9395 31.4389 21.9395C31.6228 21.9395 31.8434 21.9104 31.9905 21.7942C32.1744 21.6779 32.5789 21.6489 32.9098 21.6489H33.5718C34.3072 21.6489 34.7485 21.5326 35.5943 21.1548C36.5504 20.7188 39.6026 19.9921 40.4116 19.9921H40.4484C40.4484 20.0212 39.9336 20.2537 39.2349 20.4863C37.0285 21.271 35.1163 22.2011 35.0795 22.4918C35.0795 22.6371 34.7853 22.7824 34.4543 22.8115C34.0866 22.8405 33.8292 22.9859 33.7924 23.1603C33.7924 23.3056 33.4614 23.5672 33.0937 23.7125C32.7628 23.8578 32.6157 23.9741 32.6157 24.0322C32.6157 24.0903 32.6524 24.0903 32.7628 24.0903C32.8731 24.0903 33.1305 24.0613 33.4247 23.945C33.7556 23.7997 34.5647 23.6834 35.1898 23.6834Z" fill="white" />
</svg>
